<svg width="1774" height="1457" viewBox="0 0 1774 1457" fill="none" xmlns="http://www.w3.org/2000/svg" xmlns:xlink="http://www.w3.org/1999/xlink">
<rect x="311.5" y="607.5" width="59" height="68" rx="5.5" fill="black" stroke="#474747"/>
<path d="M340.772 627.652C339.566 628.948 339.044 629.884 339.044 630.856C339.044 631.99 339.638 632.818 340.556 632.818C341.33 632.818 341.96 632.17 341.96 631.414C341.96 630.64 341.348 629.992 340.592 629.992C340.736 629.416 341.096 628.84 341.636 628.3L340.772 627.652Z" fill="white"/>
<rect x="311.5" y="682.5" width="85" height="68" rx="5.5" fill="black" stroke="#474747"/>
<path d="M344.5 720.78C344.28 721 343.9 721.16 343.48 721.16C342.9 721.16 342.46 720.66 342.46 719.96V714.68H344.8V712.66H342.46V709.82H340.08V712.66H338.58V714.68H340.08V720.26C340.08 722 341.28 723.24 343 723.24C343.78 723.24 344.62 722.92 345.2 722.42L344.5 720.78ZM351.594 712.42C350.294 712.42 348.934 712.78 347.474 713.5L348.314 715.2C349.194 714.76 350.134 714.42 351.114 714.42C352.994 714.42 353.654 715.58 353.654 716.78V717.06C352.714 716.7 351.694 716.5 350.754 716.5C348.434 716.5 346.534 717.9 346.534 719.94C346.534 721.94 348.194 723.24 350.394 723.24C351.594 723.24 352.894 722.72 353.654 721.76V723H356.034V716.78C356.034 714.16 354.334 712.42 351.594 712.42ZM350.934 721.46C349.774 721.46 348.914 720.84 348.914 719.86C348.914 718.88 349.894 718.2 351.114 718.2C352.034 718.2 352.894 718.34 353.654 718.6V719.76C353.374 720.86 352.114 721.46 350.934 721.46ZM364.776 712.42C363.236 712.42 361.996 713.12 361.176 714.3V709.02H358.736V723H361.176V721.36C361.996 722.54 363.236 723.24 364.776 723.24C367.516 723.24 369.516 721 369.516 717.82C369.516 714.66 367.516 712.42 364.776 712.42ZM364.116 721.16C362.396 721.16 361.196 719.76 361.196 717.82C361.196 715.88 362.396 714.5 364.116 714.5C365.856 714.5 367.096 715.88 367.096 717.82C367.096 719.76 365.856 721.16 364.116 721.16Z" fill="white"/>
<rect x="311.5" y="758.5" width="114" height="68" rx="5.5" fill="black" stroke="#474747"/>
<path d="M329.32 799.24C330.96 799.24 332.34 798.56 333.34 797.5L331.7 796.08C331.12 796.74 330.24 797.16 329.34 797.16C327.64 797.16 326.22 795.64 326.22 793.82C326.22 792.02 327.64 790.5 329.34 790.5C330.22 790.5 331.08 790.92 331.64 791.54L333.28 790.1C332.3 789.08 330.92 788.42 329.36 788.42C326.34 788.42 323.8 790.88 323.8 793.82C323.8 796.76 326.34 799.24 329.32 799.24ZM339.758 788.42C338.458 788.42 337.098 788.78 335.638 789.5L336.478 791.2C337.358 790.76 338.298 790.42 339.278 790.42C341.158 790.42 341.818 791.58 341.818 792.78V793.06C340.878 792.7 339.858 792.5 338.918 792.5C336.598 792.5 334.698 793.9 334.698 795.94C334.698 797.94 336.358 799.24 338.558 799.24C339.758 799.24 341.058 798.72 341.818 797.76V799H344.198V792.78C344.198 790.16 342.498 788.42 339.758 788.42ZM339.098 797.46C337.938 797.46 337.078 796.84 337.078 795.86C337.078 794.88 338.058 794.2 339.278 794.2C340.198 794.2 341.058 794.34 341.818 794.6V795.76C341.538 796.86 340.278 797.46 339.098 797.46ZM352.94 788.42C351.4 788.42 350.16 789.12 349.34 790.3V788.66H346.9V802.44H349.34V797.36C350.16 798.54 351.4 799.24 352.94 799.24C355.68 799.24 357.68 797 357.68 793.82C357.68 790.66 355.68 788.42 352.94 788.42ZM352.28 797.16C350.56 797.16 349.36 795.76 349.36 793.82C349.36 791.88 350.56 790.5 352.28 790.5C354.02 790.5 355.26 791.88 355.26 793.82C355.26 795.76 354.02 797.16 352.28 797.16ZM363.707 799.24C366.127 799.24 367.767 797.96 367.767 795.98C367.767 793.82 365.887 793.22 364.147 792.74C362.567 792.28 362.027 792.08 362.027 791.42C362.027 790.84 362.687 790.5 363.547 790.5C364.447 790.5 365.507 790.82 366.487 791.44L367.507 789.66C366.387 788.92 364.967 788.42 363.547 788.42C361.247 788.42 359.647 789.74 359.647 791.68C359.667 793.52 361.087 794.16 363.327 794.74C364.507 795.06 365.407 795.32 365.407 796.12C365.407 796.76 364.727 797.18 363.747 797.18C362.447 797.18 361.287 796.7 360.287 795.98L359.187 797.68C360.427 798.68 362.127 799.24 363.707 799.24ZM375.551 799H377.991V785.02H375.551V799ZM385.688 799.24C388.688 799.24 391.228 796.76 391.228 793.82C391.228 790.88 388.688 788.42 385.688 788.42C382.688 788.42 380.148 790.88 380.148 793.82C380.148 796.76 382.688 799.24 385.688 799.24ZM385.688 797.16C383.968 797.16 382.528 795.64 382.528 793.82C382.528 792.02 383.968 790.5 385.688 790.5C387.388 790.5 388.828 792.02 388.828 793.82C388.828 795.64 387.388 797.16 385.688 797.16ZM398.324 799.24C399.964 799.24 401.344 798.56 402.344 797.5L400.704 796.08C400.124 796.74 399.244 797.16 398.344 797.16C396.644 797.16 395.224 795.64 395.224 793.82C395.224 792.02 396.644 790.5 398.344 790.5C399.224 790.5 400.084 790.92 400.644 791.54L402.284 790.1C401.304 789.08 399.924 788.42 398.364 788.42C395.344 788.42 392.804 790.88 392.804 793.82C392.804 796.76 395.344 799.24 398.324 799.24ZM414.022 788.66H411.142L406.662 793.56V785.02H404.222V799H406.662V796.42L408.122 794.88L411.042 799H413.882L409.762 793.28L414.022 788.66Z" fill="white"/>
<rect x="311.5" y="833.5" width="156" height="68" rx="5.5" fill="black" stroke="#474747"/>
<path d="M421.07 865.57L415 859.5L408.93 865.57" stroke="white" stroke-width="1.5" stroke-miterlimit="10" stroke-linecap="round" stroke-linejoin="round"/>
<path d="M415 876.5V859.67" stroke="white" stroke-width="1.5" stroke-miterlimit="10" stroke-linecap="round" stroke-linejoin="round"/>
<path d="M357.16 874.24C359.58 874.24 361.22 872.96 361.22 870.98C361.22 868.82 359.34 868.22 357.6 867.74C356.02 867.28 355.48 867.08 355.48 866.42C355.48 865.84 356.14 865.5 357 865.5C357.9 865.5 358.96 865.82 359.94 866.44L360.96 864.66C359.84 863.92 358.42 863.42 357 863.42C354.7 863.42 353.1 864.74 353.1 866.68C353.12 868.52 354.54 869.16 356.78 869.74C357.96 870.06 358.86 870.32 358.86 871.12C358.86 871.76 358.18 872.18 357.2 872.18C355.9 872.18 354.74 871.7 353.74 870.98L352.64 872.68C353.88 873.68 355.58 874.24 357.16 874.24ZM368.98 863.42C367.6 863.42 366.38 864.08 365.76 865.08V860.02H363.32V874H365.76V867.74C365.76 866.5 366.9 865.5 368.28 865.5C369.56 865.5 370.46 866.5 370.46 867.9V874H372.82V867.42C372.82 865.08 371.24 863.42 368.98 863.42ZM376.709 862.1C377.469 862.1 378.089 861.44 378.089 860.7C378.089 859.96 377.469 859.32 376.709 859.32C375.929 859.32 375.309 859.96 375.309 860.7C375.309 861.44 375.929 862.1 376.709 862.1ZM375.469 874H377.909V863.66H375.469V874ZM383.726 862.8C383.726 862.1 384.166 861.6 384.746 861.6C385.166 861.6 385.546 861.76 385.766 861.98L386.466 860.42C385.886 859.92 385.046 859.6 384.266 859.6C382.546 859.6 381.346 860.84 381.346 862.58V863.66H379.846V865.68H381.346V874H383.726V865.68H386.066V863.66H383.726V862.8ZM393.168 871.78C392.948 872 392.568 872.16 392.148 872.16C391.568 872.16 391.128 871.66 391.128 870.96V865.68H393.468V863.66H391.128V860.82H388.748V863.66H387.248V865.68H388.748V871.26C388.748 873 389.948 874.24 391.668 874.24C392.448 874.24 393.288 873.92 393.868 873.42L393.168 871.78Z" fill="white"/>
<rect x="376.5" y="607.5" width="74" height="68" rx="5.5" fill="black" stroke="#474747"/>
<path d="M409.74 648H412.22V634.26H410.22L406.36 636.88L407.38 638.64L409.74 637.14V648Z" fill="white"/>
<rect x="403.5" y="682.5" width="74" height="68" rx="5.5" fill="black" stroke="#474747"/>
<path d="M448.32 716.12C448.32 712.26 445.02 709.02 441.12 709.02C437.2 709.02 433.9 712.26 433.9 716.12C433.9 719.98 437.2 723.24 441.12 723.24C442.76 723.24 444.28 722.66 445.5 721.72L446.98 723L448.3 721.46L446.92 720.26C447.8 719.1 448.32 717.66 448.32 716.12ZM441.12 720.96C438.58 720.96 436.44 718.76 436.44 716.12C436.44 713.5 438.58 711.3 441.12 711.3C443.64 711.3 445.76 713.5 445.76 716.12C445.76 717.04 445.5 717.9 445.06 718.64L443.22 717.04L441.9 718.58L443.68 720.14C442.94 720.66 442.06 720.96 441.12 720.96Z" fill="white"/>
<rect x="431.5" y="758.5" width="74" height="68" rx="5.5" fill="black" stroke="#474747"/>
<path d="M472.88 799H475.64L469.9 785.26H467.12L461.38 799H464.16L465.2 796.52H471.84L472.88 799ZM466.1 794.36L468.52 788.58L470.94 794.36H466.1Z" fill="white"/>
<rect x="473.5" y="833.5" width="74" height="68" rx="5.5" fill="black" stroke="#474747"/>
<path d="M504.02 874H515.1V871.72H507.44L515 862.16V860.26H504.16V862.54H511.6L504.02 872.1V874Z" fill="white"/>
<rect x="311.5" y="907.5" width="77" height="69" rx="5.5" fill="black" stroke="#474747"/>
<path d="M340.32 948.24C341.96 948.24 343.34 947.56 344.34 946.5L342.7 945.08C342.12 945.74 341.24 946.16 340.34 946.16C338.64 946.16 337.22 944.64 337.22 942.82C337.22 941.02 338.64 939.5 340.34 939.5C341.22 939.5 342.08 939.92 342.64 940.54L344.28 939.1C343.3 938.08 341.92 937.42 340.36 937.42C337.34 937.42 334.8 939.88 334.8 942.82C334.8 945.76 337.34 948.24 340.32 948.24ZM351.418 945.78C351.198 946 350.818 946.16 350.398 946.16C349.818 946.16 349.378 945.66 349.378 944.96V939.68H351.718V937.66H349.378V934.82H346.998V937.66H345.498V939.68H346.998V945.26C346.998 947 348.198 948.24 349.918 948.24C350.698 948.24 351.538 947.92 352.118 947.42L351.418 945.78ZM356.512 939.66V937.66H354.072V948H356.512V942.78C356.512 940.82 357.992 939.5 360.212 939.5V937.42C358.512 937.42 357.172 938.28 356.512 939.66ZM362.02 948H364.46V934.02H362.02V948Z" fill="white"/>
<rect x="456.5" y="607.5" width="74" height="68" rx="5.5" fill="black" stroke="#474747"/>
<path d="M486.9 648H497V645.72H490.78L493.66 643.4C496.02 641.58 496.86 640.12 496.86 638.3C496.86 635.76 494.78 634.02 492.06 634.02C489.84 634.02 488.18 635 486.88 636.7L488.5 638.2C489.5 637 490.54 636.26 491.98 636.26C493.22 636.26 494.32 637.06 494.32 638.36C494.32 639.48 493.7 640.52 491.96 641.92L486.9 645.96V648Z" fill="white"/>
<rect x="483.5" y="682.5" width="74" height="68" rx="5.5" fill="black" stroke="#474747"/>
<path d="M517.86 723H520.34L523.8 712.8L527.24 723H529.74L534.08 709.26H531.34L528.4 719.1L525.16 709.26H522.44L519.18 719.1L516.24 709.26H513.5L517.86 723Z" fill="white"/>
<rect x="511.5" y="758.5" width="74" height="68" rx="5.5" fill="black" stroke="#474747"/>
<path d="M547.5 799.22C550.78 799.22 552.66 797.48 552.66 795.02C552.66 792.52 550.74 791.6 547.88 790.96C545.7 790.46 544.68 790.06 544.68 788.94C544.68 787.98 545.62 787.14 547 787.14C548.36 787.14 549.74 787.72 550.94 788.76L552.3 786.92C550.92 785.74 549.28 785 547.1 785C544.2 785 542.16 786.76 542.16 789.16C542.16 791.74 544.14 792.56 546.98 793.22C549.18 793.74 550.16 794.12 550.16 795.26C550.16 796.24 549.28 797.08 547.58 797.08C545.78 797.08 544.32 796.36 543.06 795.22L541.62 797C543.14 798.42 545.14 799.22 547.5 799.22Z" fill="white"/>
<rect x="553.5" y="833.5" width="74" height="68" rx="5.5" fill="black" stroke="#474747"/>
<path d="M596.64 860.26H593.72L590.08 865.14L586.46 860.26H583.48L588.58 867.14L583.48 874H586.42L590.06 869.12L593.68 874H596.64L591.54 867.12L596.64 860.26Z" fill="white"/>
<rect x="394.5" y="907.5" width="74" height="69" rx="5.5" fill="black" stroke="#474747"/>
<path d="M426.46 936.8C426.46 936.1 426.9 935.6 427.48 935.6C427.9 935.6 428.28 935.76 428.5 935.98L429.2 934.42C428.62 933.92 427.78 933.6 427 933.6C425.28 933.6 424.08 934.84 424.08 936.58V937.66H422.58V939.68H424.08V948H426.46V939.68H428.8V937.66H426.46V936.8ZM436.382 937.42C435.022 937.42 433.822 938.08 433.182 939.04V937.66H430.742V948H433.182V941.46C433.342 940.36 434.402 939.5 435.682 939.5C436.962 939.5 437.862 940.5 437.862 941.9V948H440.222V941.42C440.222 939.08 438.642 937.42 436.382 937.42Z" fill="white"/>
<rect x="536.5" y="607.5" width="74" height="68" rx="5.5" fill="black" stroke="#474747"/>
<path d="M571.96 648.24C575.06 648.24 577.08 646.56 577.08 644.2C577.08 642.34 575.64 641.28 574.18 640.94C575.66 640.5 576.78 639.42 576.78 637.76C576.78 635.58 574.84 634.02 571.92 634.02C569.58 634.02 567.98 635.06 566.88 636.44L568.36 637.96C569.3 636.92 570.34 636.26 571.7 636.26C573.18 636.26 574.26 637.04 574.26 638.16C574.26 639.36 573.2 640.02 571.58 640H570.04V642.16L571.58 642.14C573.52 642.14 574.54 642.78 574.54 644C574.54 645.2 573.52 646.02 571.88 646.02C570.4 646.02 569.08 645.36 568.12 644.28L566.6 645.92C567.72 647.26 569.56 648.24 571.96 648.24Z" fill="white"/>
<rect x="563.5" y="682.5" width="74" height="68" rx="5.5" fill="black" stroke="#474747"/>
<path d="M604.76 711.54V709.26H594.42V723H604.76V720.72H596.92V717.14H604.02V714.86H596.92V711.54H604.76Z" fill="white"/>
<rect x="591.5" y="758.5" width="74" height="68" rx="5.5" fill="black" stroke="#474747"/>
<path d="M622.6 799H627.44C631.98 799 635.18 796.14 635.18 792.12C635.18 788.1 631.98 785.26 627.44 785.26H622.6V799ZM625.1 796.74V787.52H627.7C630.6 787.52 632.64 789.42 632.64 792.12C632.64 794.82 630.6 796.74 627.7 796.74H625.1Z" fill="white"/>
<rect x="633.5" y="833.5" width="74" height="68" rx="5.5" fill="black" stroke="#474747"/>
<path d="M671.12 874.24C673.14 874.24 674.98 873.38 676.3 872L674.54 870.36C673.68 871.34 672.46 871.96 671.12 871.96C668.58 871.96 666.44 869.76 666.44 867.12C666.44 864.5 668.58 862.3 671.12 862.3C672.44 862.3 673.68 862.92 674.52 863.9L676.3 862.24C674.98 860.88 673.14 860.02 671.12 860.02C667.2 860.02 663.9 863.26 663.9 867.12C663.9 870.98 667.2 874.24 671.12 874.24Z" fill="white"/>
<rect x="479.5" y="912.5" width="69" height="64" rx="5.5" fill="black" stroke="#474747"/>
<path d="M511.437 933.576L500 935.545V943.424H511.437V933.576Z" fill="white"/>
<path d="M528 932L513.803 933.576V943.424H528V932Z" fill="white"/>
<path d="M511.437 945.394H500V954.061L511.437 955.636V945.394Z" fill="white"/>
<path d="M528 945.394H513.803V955.636L528 958V945.394Z" fill="white"/>
<rect x="616.5" y="607.5" width="74" height="68" rx="5.5" fill="black" stroke="#474747"/>
<path d="M653.62 648H656.1V645.02H658V642.88H656.1V634.26H653.12L646.6 643.08L646.84 645.02H653.62V648ZM649.26 642.88L653.62 636.98V642.88H649.26Z" fill="white"/>
<rect x="643.5" y="682.5" width="74" height="68" rx="5.5" fill="black" stroke="#474747"/>
<path d="M685.66 723L682.22 718.12C684.2 717.5 685.54 715.9 685.54 713.82C685.54 711.14 683.34 709.26 680.4 709.26H674.42V723H676.92V718.38H679.58L682.82 723H685.66ZM676.92 711.56H680.12C681.82 711.56 683 712.42 683 713.82C683 715.22 681.82 716.08 680.12 716.08H676.92V711.56Z" fill="white"/>
<rect x="671.5" y="758.5" width="74" height="68" rx="5.5" fill="black" stroke="#474747"/>
<path d="M712.76 787.54V785.26H702.42V799H704.92V793.3H712.02V791.02H704.92V787.54H712.76Z" fill="white"/>
<rect x="713.5" y="833.5" width="74" height="68" rx="5.5" fill="black" stroke="#474747"/>
<path d="M754.88 860.26L750.52 870.68L746.16 860.26H743.4L749.14 874H751.92L757.66 860.26H754.88Z" fill="white"/>
<rect x="554.5" y="907.5" width="74" height="69" rx="5.5" fill="black" stroke="#474747"/>
<path d="M584.84 937.42C583.54 937.42 582.18 937.78 580.72 938.5L581.56 940.2C582.44 939.76 583.38 939.42 584.36 939.42C586.24 939.42 586.9 940.58 586.9 941.78V942.06C585.96 941.7 584.94 941.5 584 941.5C581.68 941.5 579.78 942.9 579.78 944.94C579.78 946.94 581.44 948.24 583.64 948.24C584.84 948.24 586.14 947.72 586.9 946.76V948H589.28V941.78C589.28 939.16 587.58 937.42 584.84 937.42ZM584.18 946.46C583.02 946.46 582.16 945.84 582.16 944.86C582.16 943.88 583.14 943.2 584.36 943.2C585.28 943.2 586.14 943.34 586.9 943.6V944.76C586.62 945.86 585.36 946.46 584.18 946.46ZM591.922 948H594.362V934.02H591.922V948ZM602.219 945.78C601.999 946 601.619 946.16 601.199 946.16C600.619 946.16 600.179 945.66 600.179 944.96V939.68H602.519V937.66H600.179V934.82H597.799V937.66H596.299V939.68H597.799V945.26C597.799 947 598.999 948.24 600.719 948.24C601.499 948.24 602.339 947.92 602.919 947.42L602.219 945.78Z" fill="white"/>
<rect x="634.5" y="907.5" width="395" height="69" rx="5.5" fill="black" stroke="#474747"/>
<rect x="696.5" y="607.5" width="74" height="68" rx="5.5" fill="black" stroke="#474747"/>
<path d="M732 648.24C735.14 648.24 737.28 646.4 737.28 643.56C737.28 640.8 735.18 639.24 732.74 639.24C731.56 639.24 730.66 639.6 729.96 640.08L730.08 636.54H736.54V634.26H727.74L727.54 641.56L729.24 642.28C730.02 641.68 730.96 641.32 732.04 641.32C733.68 641.32 734.78 642.26 734.78 643.66C734.78 645 733.72 646.08 732.04 646.08C730.66 646.08 729.4 645.38 728.34 644.34L726.86 646.12C728.08 647.4 729.76 648.24 732 648.24Z" fill="white"/>
<rect x="723.5" y="682.5" width="74" height="68" rx="5.5" fill="black" stroke="#474747"/>
<path d="M758.12 723H760.6V711.54H765V709.26H753.72V711.54H758.12V723Z" fill="white"/>
<rect x="751.5" y="758.5" width="74" height="68" rx="5.5" fill="black" stroke="#474747"/>
<path d="M788.76 793.48H792.18V795.98C791.32 796.6 790.2 796.96 789.16 796.96C786.6 796.96 784.44 794.76 784.44 792.12C784.44 789.5 786.6 787.3 789.16 787.3C790.5 787.3 791.98 787.9 792.84 788.9L794.62 787.24C793.3 785.86 791.16 785.02 789.16 785.02C785.22 785.02 781.9 788.26 781.9 792.12C781.9 795.98 785.22 799.24 789.16 799.24C791.16 799.24 793.3 798.38 794.62 797V791.44H788.76V793.48Z" fill="white"/>
<rect x="793.5" y="833.5" width="74" height="68" rx="5.5" fill="black" stroke="#474747"/>
<path d="M824.6 874H831.6C834.16 874 835.98 872.46 835.98 870.26C835.98 868.76 835.04 867.5 833.46 866.74C834.68 866.08 835.4 865.1 835.4 863.7C835.4 861.7 833.72 860.26 831.34 860.26H824.6V874ZM827.08 865.88V862.42H830.74C831.96 862.42 832.84 863.14 832.84 864.16C832.84 865.16 831.96 865.88 830.74 865.88H827.08ZM827.08 871.84V867.92H831.1C832.46 867.92 833.42 868.74 833.42 869.88C833.42 871.02 832.46 871.84 831.1 871.84H827.08Z" fill="white"/>
<rect x="776.5" y="607.5" width="74" height="68" rx="5.5" fill="black" stroke="#474747"/>
<path d="M813.1 639.22C811.7 639.22 810.38 639.8 809.54 640.78C809.7 638.08 811.08 636.22 813.02 636.22C814.24 636.22 815.08 636.72 815.92 637.46L817.14 635.56C816.04 634.62 814.74 634.02 813.04 634.02C809.46 634.02 806.96 637.12 806.96 641.36C806.96 645.32 808.7 648.24 812.6 648.24C815.56 648.24 817.72 646.28 817.72 643.56C817.72 640.82 815.62 639.22 813.1 639.22ZM812.48 646.12C810.82 646.12 809.96 644.98 809.66 643.16C810.06 642 811.12 641.26 812.44 641.26C813.94 641.26 815.18 642.16 815.18 643.66C815.18 644.92 814.16 646.12 812.48 646.12Z" fill="white"/>
<rect x="803.5" y="682.5" width="74" height="68" rx="5.5" fill="black" stroke="#474747"/>
<path d="M838.6 723H841.14V717.84L846.56 709.26H843.72L839.88 715.48L836.1 709.26H833.16L838.6 717.84V723Z" fill="white"/>
<rect x="831.5" y="758.5" width="74" height="68" rx="5.5" fill="black" stroke="#474747"/>
<path d="M871.78 785.26V790.86H864.92V785.26H862.42V799H864.92V793.14H871.78V799H874.28V785.26H871.78Z" fill="white"/>
<rect x="873.5" y="833.5" width="74" height="68" rx="5.5" fill="black" stroke="#474747"/>
<path d="M904.6 874H907.1V864.34L914.36 874H916.84V860.26H914.36V869.92L907.1 860.26H904.6V874Z" fill="white"/>
<rect x="856.5" y="607.5" width="74" height="68" rx="5.5" fill="black" stroke="#474747"/>
<path d="M888.44 648H891.26L896.94 636.14V634.26H887.02V636.54H894.04L888.44 648Z" fill="white"/>
<rect x="883.5" y="682.5" width="74" height="68" rx="5.5" fill="black" stroke="#474747"/>
<path d="M920.52 723.24C924.08 723.24 926.58 720.72 926.58 717.14V709.26H924.1V717.06C924.1 719.34 922.62 720.98 920.52 720.98C918.44 720.98 916.96 719.34 916.96 717.06V709.26H914.46V717.14C914.46 720.72 916.98 723.24 920.52 723.24Z" fill="white"/>
<rect x="911.5" y="758.5" width="74" height="68" rx="5.5" fill="black" stroke="#474747"/>
<path d="M945.82 799.24C948.5 799.24 950.4 797.28 950.4 794.52V785.26H947.92V794.36C947.92 795.9 946.96 796.98 945.6 796.98C944.56 796.98 943.5 796.28 943.02 795.32L941.34 796.96C942.24 798.3 944.1 799.24 945.82 799.24Z" fill="white"/>
<rect x="953.5" y="833.5" width="74" height="68" rx="5.5" fill="black" stroke="#474747"/>
<path d="M984.6 874H987.1V864.82L991.62 873.2L996.16 864.82V874H998.64V860.26H996.16L991.62 868.64L987.1 860.26H984.6V874Z" fill="white"/>
<rect x="936.5" y="607.5" width="74" height="68" rx="5.5" fill="black" stroke="#474747"/>
<path d="M972.18 648.24C975.14 648.24 977.54 646.8 977.54 644.34C977.54 642.72 976.36 641.52 974.74 640.9C976.12 640.34 977.18 639.32 977.18 637.72C977.18 635.4 974.84 634.02 972.18 634.02C969.6 634.02 967.2 635.36 967.2 637.72C967.2 639.28 968.22 640.3 969.64 640.9C968.04 641.48 966.84 642.68 966.84 644.34C966.84 646.78 969.2 648.24 972.18 648.24ZM972.18 640C971.04 639.94 969.66 639.26 969.66 638.04C969.66 636.96 970.74 636.14 972.18 636.14C973.62 636.14 974.72 636.96 974.72 638.04C974.72 639.24 973.36 639.94 972.18 640ZM972.18 646.1C970.56 646.1 969.34 645.3 969.34 644.1C969.34 642.82 970.92 642.06 972.18 642C973.46 642.06 975.02 642.82 975.02 644.1C975.02 645.3 973.78 646.1 972.18 646.1Z" fill="white"/>
<rect x="963.5" y="682.5" width="74" height="68" rx="5.5" fill="black" stroke="#474747"/>
<path d="M999.46 723H1001.94V709.26H999.46V723Z" fill="white"/>
<rect x="991.5" y="758.5" width="74" height="68" rx="5.5" fill="black" stroke="#474747"/>
<path d="M1024.78 796.72V785.26H1022.3V799H1031.84V796.72H1024.78Z" fill="white"/>
<rect x="1033.5" y="833.5" width="74" height="68" rx="5.5" fill="black" stroke="#474747"/>
<path d="M1065.58 876.84C1066.92 875.4 1067.5 874.36 1067.5 873.28C1067.5 872.02 1066.84 871.1 1065.82 871.1C1064.96 871.1 1064.26 871.82 1064.26 872.66C1064.26 873.52 1064.94 874.24 1065.78 874.24C1065.62 874.88 1065.22 875.52 1064.62 876.12L1065.58 876.84Z" fill="white"/>
<rect x="1035.5" y="907.5" width="74" height="69" rx="5.5" fill="black" stroke="#474747"/>
<path d="M1065.84 937.42C1064.54 937.42 1063.18 937.78 1061.72 938.5L1062.56 940.2C1063.44 939.76 1064.38 939.42 1065.36 939.42C1067.24 939.42 1067.9 940.58 1067.9 941.78V942.06C1066.96 941.7 1065.94 941.5 1065 941.5C1062.68 941.5 1060.78 942.9 1060.78 944.94C1060.78 946.94 1062.44 948.24 1064.64 948.24C1065.84 948.24 1067.14 947.72 1067.9 946.76V948H1070.28V941.78C1070.28 939.16 1068.58 937.42 1065.84 937.42ZM1065.18 946.46C1064.02 946.46 1063.16 945.84 1063.16 944.86C1063.16 943.88 1064.14 943.2 1065.36 943.2C1066.28 943.2 1067.14 943.34 1067.9 943.6V944.76C1067.62 945.86 1066.36 946.46 1065.18 946.46ZM1072.92 948H1075.36V934.02H1072.92V948ZM1083.22 945.78C1083 946 1082.62 946.16 1082.2 946.16C1081.62 946.16 1081.18 945.66 1081.18 944.96V939.68H1083.52V937.66H1081.18V934.82H1078.8V937.66H1077.3V939.68H1078.8V945.26C1078.8 947 1080 948.24 1081.72 948.24C1082.5 948.24 1083.34 947.92 1083.92 947.42L1083.22 945.78Z" fill="white"/>
<rect x="1016.5" y="607.5" width="74" height="68" rx="5.5" fill="black" stroke="#474747"/>
<path d="M1052.12 634.02C1049.16 634.02 1047 635.98 1047 638.7C1047 641.44 1049.1 643.04 1051.62 643.04C1053.02 643.04 1054.34 642.46 1055.18 641.48C1055.02 644.18 1053.64 646.04 1051.7 646.04C1050.48 646.04 1049.64 645.54 1048.8 644.8L1047.58 646.7C1048.68 647.64 1049.98 648.24 1051.68 648.24C1055.26 648.24 1057.76 645.14 1057.76 640.9C1057.76 636.94 1056.02 634.02 1052.12 634.02ZM1052.28 641C1050.78 641 1049.54 640.1 1049.54 638.6C1049.54 637.34 1050.56 636.14 1052.24 636.14C1053.9 636.14 1054.76 637.28 1055.06 639.1C1054.66 640.26 1053.6 641 1052.28 641Z" fill="white"/>
<rect x="1043.5" y="682.5" width="74" height="68" rx="5.5" fill="black" stroke="#474747"/>
<path d="M1080.12 723.24C1084.02 723.24 1087.32 719.98 1087.32 716.12C1087.32 712.26 1084.02 709.02 1080.12 709.02C1076.2 709.02 1072.9 712.26 1072.9 716.12C1072.9 719.98 1076.2 723.24 1080.12 723.24ZM1080.12 720.96C1077.58 720.96 1075.44 718.76 1075.44 716.12C1075.44 713.5 1077.58 711.3 1080.12 711.3C1082.64 711.3 1084.76 713.5 1084.76 716.12C1084.76 718.76 1082.64 720.96 1080.12 720.96Z" fill="white"/>
<rect x="1071.5" y="758.5" width="74" height="68" rx="5.5" fill="black" stroke="#474747"/>
<path d="M1104.74 799H1107.22V785.26H1105.22L1101.36 787.88L1102.38 789.64L1104.74 788.14V799Z" fill="white"/>
<rect x="1113.5" y="833.5" width="74" height="68" rx="5.5" fill="black" stroke="#474747"/>
<path d="M1145.82 874.24C1146.66 874.24 1147.36 873.52 1147.36 872.64C1147.36 871.82 1146.66 871.1 1145.82 871.1C1144.9 871.1 1144.22 871.82 1144.22 872.64C1144.22 873.52 1144.9 874.24 1145.82 874.24Z" fill="white"/>
<rect x="1115.5" y="907.5" width="74" height="69" rx="5.5" fill="black" stroke="#474747"/>
<path d="M1143.32 948.24C1144.96 948.24 1146.34 947.56 1147.34 946.5L1145.7 945.08C1145.12 945.74 1144.24 946.16 1143.34 946.16C1141.64 946.16 1140.22 944.64 1140.22 942.82C1140.22 941.02 1141.64 939.5 1143.34 939.5C1144.22 939.5 1145.08 939.92 1145.64 940.54L1147.28 939.1C1146.3 938.08 1144.92 937.42 1143.36 937.42C1140.34 937.42 1137.8 939.88 1137.8 942.82C1137.8 945.76 1140.34 948.24 1143.32 948.24ZM1154.42 945.78C1154.2 946 1153.82 946.16 1153.4 946.16C1152.82 946.16 1152.38 945.66 1152.38 944.96V939.68H1154.72V937.66H1152.38V934.82H1150V937.66H1148.5V939.68H1150V945.26C1150 947 1151.2 948.24 1152.92 948.24C1153.7 948.24 1154.54 947.92 1155.12 947.42L1154.42 945.78ZM1159.51 939.66V937.66H1157.07V948H1159.51V942.78C1159.51 940.82 1160.99 939.5 1163.21 939.5V937.42C1161.51 937.42 1160.17 938.28 1159.51 939.66ZM1165.02 948H1167.46V934.02H1165.02V948Z" fill="white"/>
<rect x="1096.5" y="607.5" width="74" height="68" rx="5.5" fill="black" stroke="#474747"/>
<path d="M1133.02 648.24C1136.54 648.24 1139.02 645.3 1139.02 641.12C1139.02 636.96 1136.54 634.02 1133.02 634.02C1129.48 634.02 1126.98 636.96 1126.98 641.12C1126.98 645.3 1129.48 648.24 1133.02 648.24ZM1133.02 645.96C1130.98 645.96 1129.54 643.96 1129.54 641.12C1129.54 638.28 1130.98 636.3 1133.02 636.3C1135.04 636.3 1136.48 638.28 1136.48 641.12C1136.48 643.96 1135.04 645.96 1133.02 645.96Z" fill="white"/>
<rect x="1123.5" y="682.5" width="74" height="68" rx="5.5" fill="black" stroke="#474747"/>
<path d="M1155.42 723H1157.92V718.38H1161.4C1164.34 718.38 1166.54 716.5 1166.54 713.82C1166.54 711.14 1164.34 709.26 1161.4 709.26H1155.42V723ZM1157.92 716.08V711.56H1161.12C1162.82 711.56 1164 712.42 1164 713.82C1164 715.22 1162.82 716.08 1161.12 716.08H1157.92Z" fill="white"/>
<rect x="1151.5" y="758.5" width="74" height="68" rx="5.5" fill="black" stroke="#474747"/>
<path d="M1184.74 799H1187.22V785.26H1185.22L1181.36 787.88L1182.38 789.64L1184.74 788.14V799Z" fill="white"/>
<rect x="1193.5" y="833.5" width="74" height="68" rx="5.5" fill="black" stroke="#474747"/>
<path d="M1222.58 875.48H1225.2L1232.12 859.14H1229.5L1222.58 875.48Z" fill="white"/>
<rect x="1195.5" y="907.5" width="74" height="69" rx="5.5" fill="black" stroke="#474747"/>
<path d="M1235.36 946.32V944.26L1228.14 941.12L1235.36 937.98V935.94L1226.1 940.16V942.1L1235.36 946.32Z" fill="white"/>
<rect x="1394.5" y="907.5" width="74" height="69" rx="5.5" fill="black" stroke="#474747"/>
<path d="M1425.44 946.32L1434.7 942.1V940.16L1425.44 935.94V937.98L1432.66 941.12L1425.44 944.26V946.32Z" fill="white"/>
<rect x="1273.5" y="907.5" width="115" height="32" rx="5.5" fill="black" stroke="#474747"/>
<path d="M1326.68 928.36L1328.74 928.36L1331.88 921.14L1335.02 928.36L1337.06 928.36L1332.84 919.1L1330.9 919.1L1326.68 928.36Z" fill="white"/>
<rect x="1274.5" y="945.5" width="115" height="32" rx="5.5" fill="black" stroke="#474747"/>
<path d="M1336.32 957.64L1334.26 957.64L1331.12 964.86L1327.98 957.64L1325.94 957.64L1330.16 966.9L1332.1 966.9L1336.32 957.64Z" fill="white"/>
<rect x="1176.5" y="607.5" width="74" height="68" rx="5.5" fill="black" stroke="#474747"/>
<path d="M1206.98 643.58H1212.36V641.44H1206.98V643.58Z" fill="white"/>
<rect x="1203.5" y="682.5" width="74" height="68" rx="5.5" fill="black" stroke="#474747"/>
<path d="M1238.48 725.66H1243.68V724H1240.46V710.34H1243.68V708.68H1238.48V725.66Z" fill="white"/>
<rect x="1231.5" y="758.5" width="74" height="68" rx="5.5" fill="black" stroke="#474747"/>
<path d="M1264.74 799H1267.22V785.26H1265.22L1261.36 787.88L1262.38 789.64L1264.74 788.14V799Z" fill="white"/>
<rect x="1273.5" y="833.5" width="193" height="68" rx="5.5" fill="black" stroke="#474747"/>
<path d="M1351.07 865.57L1345 859.5L1338.93 865.57" stroke="white" stroke-width="1.5" stroke-miterlimit="10" stroke-linecap="round" stroke-linejoin="round"/>
<path d="M1345 876.5V859.67" stroke="white" stroke-width="1.5" stroke-miterlimit="10" stroke-linecap="round" stroke-linejoin="round"/>
<path d="M1370.16 874.24C1372.58 874.24 1374.22 872.96 1374.22 870.98C1374.22 868.82 1372.34 868.22 1370.6 867.74C1369.02 867.28 1368.48 867.08 1368.48 866.42C1368.48 865.84 1369.14 865.5 1370 865.5C1370.9 865.5 1371.96 865.82 1372.94 866.44L1373.96 864.66C1372.84 863.92 1371.42 863.42 1370 863.42C1367.7 863.42 1366.1 864.74 1366.1 866.68C1366.12 868.52 1367.54 869.16 1369.78 869.74C1370.96 870.06 1371.86 870.32 1371.86 871.12C1371.86 871.76 1371.18 872.18 1370.2 872.18C1368.9 872.18 1367.74 871.7 1366.74 870.98L1365.64 872.68C1366.88 873.68 1368.58 874.24 1370.16 874.24ZM1381.98 863.42C1380.6 863.42 1379.38 864.08 1378.76 865.08V860.02H1376.32V874H1378.76V867.74C1378.76 866.5 1379.9 865.5 1381.28 865.5C1382.56 865.5 1383.46 866.5 1383.46 867.9V874H1385.82V867.42C1385.82 865.08 1384.24 863.42 1381.98 863.42ZM1389.71 862.1C1390.47 862.1 1391.09 861.44 1391.09 860.7C1391.09 859.96 1390.47 859.32 1389.71 859.32C1388.93 859.32 1388.31 859.96 1388.31 860.7C1388.31 861.44 1388.93 862.1 1389.71 862.1ZM1388.47 874H1390.91V863.66H1388.47V874ZM1396.73 862.8C1396.73 862.1 1397.17 861.6 1397.75 861.6C1398.17 861.6 1398.55 861.76 1398.77 861.98L1399.47 860.42C1398.89 859.92 1398.05 859.6 1397.27 859.6C1395.55 859.6 1394.35 860.84 1394.35 862.58V863.66H1392.85V865.68H1394.35V874H1396.73V865.68H1399.07V863.66H1396.73V862.8ZM1406.17 871.78C1405.95 872 1405.57 872.16 1405.15 872.16C1404.57 872.16 1404.13 871.66 1404.13 870.96V865.68H1406.47V863.66H1404.13V860.82H1401.75V863.66H1400.25V865.68H1401.75V871.26C1401.75 873 1402.95 874.24 1404.67 874.24C1405.45 874.24 1406.29 873.92 1406.87 873.42L1406.17 871.78Z" fill="white"/>
<rect x="1256.5" y="607.5" width="74" height="68" rx="5.5" fill="black" stroke="#474747"/>
<path d="M1289.24 640.06H1298.74V637.98H1289.24V640.06ZM1289.24 644.58H1298.74V642.5H1289.24V644.58Z" fill="white"/>
<rect x="1283.5" y="682.5" width="74" height="68" rx="5.5" fill="black" stroke="#474747"/>
<path d="M1313.9 725.66H1319.1V708.68H1313.9V710.34H1317.12V724H1313.9V725.66Z" fill="white"/>
<rect x="1311.5" y="758.5" width="155" height="68" rx="5.5" fill="black" stroke="#474747"/>
<path d="M1344.74 799H1347.22V785.26H1345.22L1341.36 787.88L1342.38 789.64L1344.74 788.14V799Z" fill="white"/>
<rect x="1336.5" y="607.5" width="129" height="68" rx="5.5" fill="black" stroke="#474747"/>
<path d="M1398.57 635.93L1392.5 642L1398.57 648.07" stroke="white" stroke-width="1.5" stroke-miterlimit="10" stroke-linecap="round" stroke-linejoin="round"/>
<path d="M1409.5 642L1392.67 642" stroke="white" stroke-width="1.5" stroke-miterlimit="10" stroke-linecap="round" stroke-linejoin="round"/>
<rect x="1362.5" y="682.5" width="104" height="68" rx="5.5" fill="black" stroke="#474747"/>
<path d="M1416.72 724.48H1419.34L1412.42 708.14H1409.8L1416.72 724.48Z" fill="white"/>
<rect x="383.5" y="545.5" width="67" height="55" rx="5.5" fill="black" stroke="#474747"/>
<path d="M414.014 567.92C414.014 567.29 414.41 566.84 414.932 566.84C415.31 566.84 415.652 566.984 415.85 567.182L416.48 565.778C415.958 565.328 415.202 565.04 414.5 565.04C412.952 565.04 411.872 566.156 411.872 567.722V568.694H410.522V570.512H411.872V578H414.014V570.512H416.12V568.694H414.014V567.92ZM420.028 578H422.26V565.634H420.46L416.986 567.992L417.904 569.576L420.028 568.226V578Z" fill="white"/>
<rect x="455.5" y="545.5" width="67" height="55" rx="5.5" fill="black" stroke="#474747"/>
<path d="M478.014 567.92C478.014 567.29 478.41 566.84 478.932 566.84C479.31 566.84 479.652 566.984 479.85 567.182L480.48 565.778C479.958 565.328 479.202 565.04 478.5 565.04C476.952 565.04 475.872 566.156 475.872 567.722V568.694H474.522V570.512H475.872V578H478.014V570.512H480.12V568.694H478.014V567.92ZM481.472 578H490.562V575.948H484.964L487.556 573.86C489.68 572.222 490.436 570.908 490.436 569.27C490.436 566.984 488.564 565.418 486.116 565.418C484.118 565.418 482.624 566.3 481.454 567.83L482.912 569.18C483.812 568.1 484.748 567.434 486.044 567.434C487.16 567.434 488.15 568.154 488.15 569.324C488.15 570.332 487.592 571.268 486.026 572.528L481.472 576.164V578Z" fill="white"/>
<rect x="528.5" y="545.5" width="67" height="55" rx="5.5" fill="black" stroke="#474747"/>
<path d="M559.014 567.92C559.014 567.29 559.41 566.84 559.932 566.84C560.31 566.84 560.652 566.984 560.85 567.182L561.48 565.778C560.958 565.328 560.202 565.04 559.5 565.04C557.952 565.04 556.872 566.156 556.872 567.722V568.694H555.522V570.512H556.872V578H559.014V570.512H561.12V568.694H559.014V567.92ZM567.026 578.216C569.816 578.216 571.634 576.704 571.634 574.58C571.634 572.906 570.338 571.952 569.024 571.646C570.356 571.25 571.364 570.278 571.364 568.784C571.364 566.822 569.618 565.418 566.99 565.418C564.884 565.418 563.444 566.354 562.454 567.596L563.786 568.964C564.632 568.028 565.568 567.434 566.792 567.434C568.124 567.434 569.096 568.136 569.096 569.144C569.096 570.224 568.142 570.818 566.684 570.8H565.298V572.744L566.684 572.726C568.43 572.726 569.348 573.302 569.348 574.4C569.348 575.48 568.43 576.218 566.954 576.218C565.622 576.218 564.434 575.624 563.57 574.652L562.202 576.128C563.21 577.334 564.866 578.216 567.026 578.216Z" fill="white"/>
<rect x="600.5" y="545.5" width="67" height="55" rx="5.5" fill="black" stroke="#474747"/>
<path d="M631.014 567.92C631.014 567.29 631.41 566.84 631.932 566.84C632.31 566.84 632.652 566.984 632.85 567.182L633.48 565.778C632.958 565.328 632.202 565.04 631.5 565.04C629.952 565.04 628.872 566.156 628.872 567.722V568.694H627.522V570.512H628.872V578H631.014V570.512H633.12V568.694H631.014V567.92ZM640.52 578H642.752V575.318H644.462V573.392H642.752V565.634H640.07L634.202 573.572L634.418 575.318H640.52V578ZM636.596 573.392L640.52 568.082V573.392H636.596Z" fill="white"/>
<rect x="672.5" y="545.5" width="67" height="55" rx="5.5" fill="black" stroke="#474747"/>
<path d="M703.014 567.92C703.014 567.29 703.41 566.84 703.932 566.84C704.31 566.84 704.652 566.984 704.85 567.182L705.48 565.778C704.958 565.328 704.202 565.04 703.5 565.04C701.952 565.04 700.872 566.156 700.872 567.722V568.694H699.522V570.512H700.872V578H703.014V570.512H705.12V568.694H703.014V567.92ZM711.062 578.216C713.888 578.216 715.814 576.56 715.814 574.004C715.814 571.52 713.924 570.116 711.728 570.116C710.666 570.116 709.856 570.44 709.226 570.872L709.334 567.686H715.148V565.634H707.228L707.048 572.204L708.578 572.852C709.28 572.312 710.126 571.988 711.098 571.988C712.574 571.988 713.564 572.834 713.564 574.094C713.564 575.3 712.61 576.272 711.098 576.272C709.856 576.272 708.722 575.642 707.768 574.706L706.436 576.308C707.534 577.46 709.046 578.216 711.062 578.216Z" fill="white"/>
<rect x="746.5" y="545.5" width="67" height="55" rx="5.5" fill="black" stroke="#474747"/>
<path d="M777.014 567.92C777.014 567.29 777.41 566.84 777.932 566.84C778.31 566.84 778.652 566.984 778.85 567.182L779.48 565.778C778.958 565.328 778.202 565.04 777.5 565.04C775.952 565.04 774.872 566.156 774.872 567.722V568.694H773.522V570.512H774.872V578H777.014V570.512H779.12V568.694H777.014V567.92ZM786.052 570.098C784.792 570.098 783.604 570.62 782.848 571.502C782.992 569.072 784.234 567.398 785.98 567.398C787.078 567.398 787.834 567.848 788.59 568.514L789.688 566.804C788.698 565.958 787.528 565.418 785.998 565.418C782.776 565.418 780.526 568.208 780.526 572.024C780.526 575.588 782.092 578.216 785.602 578.216C788.266 578.216 790.21 576.452 790.21 574.004C790.21 571.538 788.32 570.098 786.052 570.098ZM785.494 576.308C784 576.308 783.226 575.282 782.956 573.644C783.316 572.6 784.27 571.934 785.458 571.934C786.808 571.934 787.924 572.744 787.924 574.094C787.924 575.228 787.006 576.308 785.494 576.308Z" fill="white"/>
<rect x="818.5" y="545.5" width="67" height="55" rx="5.5" fill="black" stroke="#474747"/>
<path d="M849.014 567.92C849.014 567.29 849.41 566.84 849.932 566.84C850.31 566.84 850.652 566.984 850.85 567.182L851.48 565.778C850.958 565.328 850.202 565.04 849.5 565.04C847.952 565.04 846.872 566.156 846.872 567.722V568.694H845.522V570.512H846.872V578H849.014V570.512H851.12V568.694H849.014V567.92ZM853.858 578H856.396L861.508 567.326V565.634H852.58V567.686H858.898L853.858 578Z" fill="white"/>
<rect x="890.5" y="545.5" width="67" height="55" rx="5.5" fill="black" stroke="#474747"/>
<path d="M921.014 567.92C921.014 567.29 921.41 566.84 921.932 566.84C922.31 566.84 922.652 566.984 922.85 567.182L923.48 565.778C922.958 565.328 922.202 565.04 921.5 565.04C919.952 565.04 918.872 566.156 918.872 567.722V568.694H917.522V570.512H918.872V578H921.014V570.512H923.12V568.694H921.014V567.92ZM929.224 578.216C931.888 578.216 934.048 576.92 934.048 574.706C934.048 573.248 932.986 572.168 931.528 571.61C932.77 571.106 933.724 570.188 933.724 568.748C933.724 566.66 931.618 565.418 929.224 565.418C926.902 565.418 924.742 566.624 924.742 568.748C924.742 570.152 925.66 571.07 926.938 571.61C925.498 572.132 924.418 573.212 924.418 574.706C924.418 576.902 926.542 578.216 929.224 578.216ZM929.224 570.8C928.198 570.746 926.956 570.134 926.956 569.036C926.956 568.064 927.928 567.326 929.224 567.326C930.52 567.326 931.51 568.064 931.51 569.036C931.51 570.116 930.286 570.746 929.224 570.8ZM929.224 576.29C927.766 576.29 926.668 575.57 926.668 574.49C926.668 573.338 928.09 572.654 929.224 572.6C930.376 572.654 931.78 573.338 931.78 574.49C931.78 575.57 930.664 576.29 929.224 576.29Z" fill="white"/>
<rect x="963.5" y="545.5" width="67" height="55" rx="5.5" fill="black" stroke="#474747"/>
<path d="M994.014 567.92C994.014 567.29 994.41 566.84 994.932 566.84C995.31 566.84 995.652 566.984 995.85 567.182L996.48 565.778C995.958 565.328 995.202 565.04 994.5 565.04C992.952 565.04 991.872 566.156 991.872 567.722V568.694H990.522V570.512H991.872V578H994.014V570.512H996.12V568.694H994.014V567.92ZM1002.17 565.418C999.506 565.418 997.562 567.182 997.562 569.63C997.562 572.096 999.452 573.536 1001.72 573.536C1002.98 573.536 1004.17 573.014 1004.92 572.132C1004.78 574.562 1003.54 576.236 1001.79 576.236C1000.69 576.236 999.938 575.786 999.182 575.12L998.084 576.83C999.074 577.676 1000.24 578.216 1001.77 578.216C1005 578.216 1007.25 575.426 1007.25 571.61C1007.25 568.046 1005.68 565.418 1002.17 565.418ZM1002.31 571.7C1000.96 571.7 999.848 570.89 999.848 569.54C999.848 568.406 1000.77 567.326 1002.28 567.326C1003.77 567.326 1004.55 568.352 1004.82 569.99C1004.46 571.034 1003.5 571.7 1002.31 571.7Z" fill="white"/>
<rect x="1035.5" y="545.5" width="67" height="55" rx="5.5" fill="black" stroke="#474747"/>
<path d="M1060.01 567.92C1060.01 567.29 1060.41 566.84 1060.93 566.84C1061.31 566.84 1061.65 566.984 1061.85 567.182L1062.48 565.778C1061.96 565.328 1061.2 565.04 1060.5 565.04C1058.95 565.04 1057.87 566.156 1057.87 567.722V568.694H1056.52V570.512H1057.87V578H1060.01V570.512H1062.12V568.694H1060.01V567.92ZM1066.03 578H1068.26V565.634H1066.46L1062.99 567.992L1063.9 569.576L1066.03 568.226V578ZM1076.06 578.216C1079.23 578.216 1081.46 575.57 1081.46 571.808C1081.46 568.064 1079.23 565.418 1076.06 565.418C1072.88 565.418 1070.63 568.064 1070.63 571.808C1070.63 575.57 1072.88 578.216 1076.06 578.216ZM1076.06 576.164C1074.23 576.164 1072.93 574.364 1072.93 571.808C1072.93 569.252 1074.23 567.47 1076.06 567.47C1077.88 567.47 1079.18 569.252 1079.18 571.808C1079.18 574.364 1077.88 576.164 1076.06 576.164Z" fill="white"/>
<rect x="1108.5" y="545.5" width="67" height="55" rx="5.5" fill="black" stroke="#474747"/>
<path d="M1136.01 567.92C1136.01 567.29 1136.41 566.84 1136.93 566.84C1137.31 566.84 1137.65 566.984 1137.85 567.182L1138.48 565.778C1137.96 565.328 1137.2 565.04 1136.5 565.04C1134.95 565.04 1133.87 566.156 1133.87 567.722V568.694H1132.52V570.512H1133.87V578H1136.01V570.512H1138.12V568.694H1136.01V567.92ZM1142.03 578H1144.26V565.634H1142.46L1138.99 567.992L1139.9 569.576L1142.03 568.226V578ZM1149.11 578H1151.34V565.634H1149.54L1146.07 567.992L1146.99 569.576L1149.11 568.226V578Z" fill="white"/>
<rect x="1180.5" y="545.5" width="67" height="55" rx="5.5" fill="black" stroke="#474747"/>
<path d="M1206.01 567.92C1206.01 567.29 1206.41 566.84 1206.93 566.84C1207.31 566.84 1207.65 566.984 1207.85 567.182L1208.48 565.778C1207.96 565.328 1207.2 565.04 1206.5 565.04C1204.95 565.04 1203.87 566.156 1203.87 567.722V568.694H1202.52V570.512H1203.87V578H1206.01V570.512H1208.12V568.694H1206.01V567.92ZM1212.03 578H1214.26V565.634H1212.46L1208.99 567.992L1209.9 569.576L1212.03 568.226V578ZM1216.56 578H1225.65V575.948H1220.05L1222.64 573.86C1224.76 572.222 1225.52 570.908 1225.52 569.27C1225.52 566.984 1223.65 565.418 1221.2 565.418C1219.2 565.418 1217.71 566.3 1216.54 567.83L1218 569.18C1218.9 568.1 1219.83 567.434 1221.13 567.434C1222.24 567.434 1223.23 568.154 1223.23 569.324C1223.23 570.332 1222.68 571.268 1221.11 572.528L1216.56 576.164V578Z" fill="white"/>
<rect x="1252.5" y="545.5" width="67" height="55" rx="5.5" fill="black" stroke="#474747"/>
<path d="M1273.69 578.216C1275.16 578.216 1276.41 577.604 1277.31 576.65L1275.83 575.372C1275.31 575.966 1274.52 576.344 1273.71 576.344C1272.18 576.344 1270.9 574.976 1270.9 573.338C1270.9 571.718 1272.18 570.35 1273.71 570.35C1274.5 570.35 1275.27 570.728 1275.78 571.286L1277.25 569.99C1276.37 569.072 1275.13 568.478 1273.72 568.478C1271.01 568.478 1268.72 570.692 1268.72 573.338C1268.72 575.984 1271.01 578.216 1273.69 578.216ZM1283.08 568.478C1281.91 568.478 1280.69 568.802 1279.37 569.45L1280.13 570.98C1280.92 570.584 1281.77 570.278 1282.65 570.278C1284.34 570.278 1284.94 571.322 1284.94 572.402V572.654C1284.09 572.33 1283.17 572.15 1282.33 572.15C1280.24 572.15 1278.53 573.41 1278.53 575.246C1278.53 577.046 1280.02 578.216 1282 578.216C1283.08 578.216 1284.25 577.748 1284.94 576.884V578H1287.08V572.402C1287.08 570.044 1285.55 568.478 1283.08 568.478ZM1282.49 576.614C1281.44 576.614 1280.67 576.056 1280.67 575.174C1280.67 574.292 1281.55 573.68 1282.65 573.68C1283.48 573.68 1284.25 573.806 1284.94 574.04V575.084C1284.68 576.074 1283.55 576.614 1282.49 576.614ZM1300.2 568.478C1298.82 568.478 1297.65 569.162 1297.2 570.242C1296.62 569.144 1295.54 568.478 1294.23 568.478C1293.06 568.478 1292.1 569.054 1291.63 569.954V568.694H1289.44V578H1291.63V572.294C1291.63 571.16 1292.48 570.35 1293.67 570.35C1294.75 570.35 1295.49 571.214 1295.49 572.438V578H1297.63V572.294C1297.63 571.16 1298.46 570.35 1299.66 570.35C1300.72 570.35 1301.46 571.214 1301.46 572.438V578H1303.6V572.078C1303.6 569.972 1302.15 568.478 1300.2 568.478Z" fill="white"/>
<rect x="1324.5" y="545.5" width="67" height="55" rx="5.5" fill="black" stroke="#474747"/>
<path d="M1347.7 568.478C1346.31 568.478 1345.19 569.108 1344.46 570.17V568.694H1342.26V581.096H1344.46V576.524C1345.19 577.586 1346.31 578.216 1347.7 578.216C1350.16 578.216 1351.96 576.2 1351.96 573.338C1351.96 570.494 1350.16 568.478 1347.7 568.478ZM1347.1 576.344C1345.55 576.344 1344.47 575.084 1344.47 573.338C1344.47 571.592 1345.55 570.35 1347.1 570.35C1348.67 570.35 1349.78 571.592 1349.78 573.338C1349.78 575.084 1348.67 576.344 1347.1 576.344ZM1356.32 578H1358.32L1360.3 571.628L1362.3 578H1364.3L1367.43 568.694H1365.23L1363.31 575.048L1361.22 568.694H1359.38L1357.31 575.048L1355.37 568.694H1353.17L1356.32 578ZM1371.3 570.494V568.694H1369.1V578H1371.3V573.302C1371.3 571.538 1372.63 570.35 1374.63 570.35V568.478C1373.1 568.478 1371.89 569.252 1371.3 570.494Z" fill="white"/>
<rect x="1397.5" y="545.5" width="67" height="55" rx="5.5" fill="black" stroke="#474747"/>
<path d="M1413.36 566.816V571.008C1412.7 570.08 1411.71 569.536 1410.5 569.536C1408.3 569.536 1406.7 571.328 1406.7 573.856C1406.7 576.4 1408.3 578.192 1410.5 578.192C1411.71 578.192 1412.7 577.648 1413.36 576.72V578H1415.31V566.816H1413.36ZM1411.02 576.528C1409.63 576.528 1408.64 575.408 1408.64 573.856C1408.64 572.304 1409.63 571.2 1411.02 571.2C1412.4 571.2 1413.36 572.304 1413.36 573.856C1413.36 575.408 1412.4 576.528 1411.02 576.528ZM1421.37 576.464C1420.18 576.464 1419.32 575.664 1419.08 574.528H1425.32C1425.32 571.472 1423.83 569.536 1421.27 569.536C1418.92 569.536 1417.06 571.36 1417.06 573.84C1417.06 576.384 1419.01 578.192 1421.38 578.192C1422.58 578.192 1424.02 577.68 1424.74 576.912L1423.51 575.632C1423.05 576.112 1422.13 576.464 1421.37 576.464ZM1421.35 571.264C1422.52 571.264 1423.22 572 1423.45 573.04H1419.09C1419.38 571.952 1420.26 571.264 1421.35 571.264ZM1427.01 578H1428.96V566.816H1427.01V578ZM1434.97 576.464C1433.79 576.464 1432.93 575.664 1432.69 574.528H1438.93C1438.93 571.472 1437.44 569.536 1434.88 569.536C1432.53 569.536 1430.67 571.36 1430.67 573.84C1430.67 576.384 1432.62 578.192 1434.99 578.192C1436.19 578.192 1437.63 577.68 1438.35 576.912L1437.12 575.632C1436.65 576.112 1435.74 576.464 1434.97 576.464ZM1434.96 571.264C1436.13 571.264 1436.83 572 1437.05 573.04H1432.7C1432.99 571.952 1433.87 571.264 1434.96 571.264ZM1444.75 576.224C1444.57 576.4 1444.27 576.528 1443.93 576.528C1443.47 576.528 1443.11 576.128 1443.11 575.568V571.344H1444.99V569.728H1443.11V567.456H1441.21V569.728H1440.01V571.344H1441.21V575.808C1441.21 577.2 1442.17 578.192 1443.55 578.192C1444.17 578.192 1444.84 577.936 1445.31 577.536L1444.75 576.224ZM1450.68 576.464C1449.49 576.464 1448.63 575.664 1448.39 574.528H1454.63C1454.63 571.472 1453.14 569.536 1450.58 569.536C1448.23 569.536 1446.37 571.36 1446.37 573.84C1446.37 576.384 1448.33 578.192 1450.69 578.192C1451.89 578.192 1453.33 577.68 1454.05 576.912L1452.82 575.632C1452.36 576.112 1451.45 576.464 1450.68 576.464ZM1450.66 571.264C1451.83 571.264 1452.53 572 1452.76 573.04H1448.41C1448.69 571.952 1449.57 571.264 1450.66 571.264Z" fill="white"/>
<rect x="311.5" y="545.5" width="67" height="55" rx="5.5" fill="black" stroke="#474747"/>
<path d="M335.544 576.272C334.212 576.272 333.24 575.372 332.97 574.094H339.99C339.99 570.656 338.316 568.478 335.436 568.478C332.79 568.478 330.702 570.53 330.702 573.32C330.702 576.182 332.898 578.216 335.562 578.216C336.912 578.216 338.532 577.64 339.342 576.776L337.956 575.336C337.434 575.876 336.408 576.272 335.544 576.272ZM335.526 570.422C336.84 570.422 337.632 571.25 337.884 572.42H332.988C333.312 571.196 334.302 570.422 335.526 570.422ZM345.332 578.216C347.51 578.216 348.986 577.064 348.986 575.282C348.986 573.338 347.294 572.798 345.728 572.366C344.306 571.952 343.82 571.772 343.82 571.178C343.82 570.656 344.414 570.35 345.188 570.35C345.998 570.35 346.952 570.638 347.834 571.196L348.752 569.594C347.744 568.928 346.466 568.478 345.188 568.478C343.118 568.478 341.678 569.666 341.678 571.412C341.696 573.068 342.974 573.644 344.99 574.166C346.052 574.454 346.862 574.688 346.862 575.408C346.862 575.984 346.25 576.362 345.368 576.362C344.198 576.362 343.154 575.93 342.254 575.282L341.264 576.812C342.38 577.712 343.91 578.216 345.332 578.216ZM355.376 578.216C356.852 578.216 358.094 577.604 358.994 576.65L357.518 575.372C356.996 575.966 356.204 576.344 355.394 576.344C353.864 576.344 352.586 574.976 352.586 573.338C352.586 571.718 353.864 570.35 355.394 570.35C356.186 570.35 356.96 570.728 357.464 571.286L358.939 569.99C358.058 569.072 356.816 568.478 355.412 568.478C352.694 568.478 350.408 570.692 350.408 573.338C350.408 575.984 352.694 578.216 355.376 578.216Z" fill="white"/>
</svg>
