<svg width="153" height="70" viewBox="0 0 153 70" fill="none" xmlns="http://www.w3.org/2000/svg">
<path d="M10.1822 3.73333V0H39.3404V0.933333L18.0503 23.8H39.3404V28H0V27.0667L21.2901 3.73333H10.1822Z" fill="white"/>
<path d="M55.0988 17.0875V7.12507H53.3993V18.6667H61.1637V17.0875H55.0988Z" fill="white"/>
<path d="M64.3708 8.53627C64.9039 8.53627 65.3538 8.06587 65.3538 7.52827C65.3538 7.00747 64.9039 6.53707 64.3708 6.53707C63.8043 6.53707 63.371 7.00747 63.371 7.52827C63.371 8.06587 63.8043 8.53627 64.3708 8.53627ZM63.5377 18.6667H65.1872V9.98107H63.5377V18.6667Z" fill="white"/>
<path d="M74.7879 9.98107V11.3755C74.1381 10.4011 73.0384 9.77947 71.7388 9.77947C69.4728 9.77947 67.8233 11.4763 67.8233 13.8955C67.8233 16.3147 69.4728 18.0283 71.7388 18.0283C73.0384 18.0283 74.1048 17.4403 74.7879 16.4491V17.7091C74.7879 19.2211 73.6716 20.1115 71.8221 20.1115C70.7891 20.1115 69.7561 19.7587 69.1229 19.1539L68.4731 20.3971C69.2895 21.0691 70.6225 21.5563 72.072 21.5563C74.6213 21.5563 76.4374 19.9771 76.4374 17.7427V9.98107H74.7879ZM72.1553 16.5835C70.6225 16.5835 69.5394 15.4747 69.5394 13.8955C69.5394 12.3331 70.6225 11.2243 72.1553 11.2243C73.6882 11.2243 74.7879 12.3331 74.7879 13.8955C74.7879 15.4747 73.6882 16.5835 72.1553 16.5835Z" fill="white"/>
<path d="M83.9461 9.77947C82.7631 9.77947 81.7134 10.4011 81.1969 11.2747V6.92347H79.564V18.6667H81.1969V13.2739C81.1969 12.1483 82.2799 11.2243 83.5795 11.2243C84.7458 11.2243 85.5623 12.1315 85.5623 13.4251V18.6667H87.1785V13.1395C87.1785 11.1739 85.8455 9.77947 83.9461 9.77947Z" fill="white"/>
<path d="M94.237 17.1043C94.0537 17.2891 93.7205 17.4235 93.3539 17.4235C92.8707 17.4235 92.4708 16.9867 92.4708 16.3819V11.3923H94.5036V9.98107H92.4708V7.59547H90.8546V9.98107H89.555V11.3923H90.8546V16.4995C90.8546 17.8939 91.7877 18.8683 93.1206 18.8683C93.7371 18.8683 94.3703 18.6331 94.8368 18.2467L94.237 17.1043Z" fill="white"/>
<path d="M106.767 18.8515C109.467 18.8515 110.933 17.3731 110.933 15.4243C110.933 13.3579 109.35 12.5851 107.067 12.0475C105.184 11.5939 104.201 11.2243 104.201 10.1491C104.201 9.22507 105.101 8.40187 106.384 8.40187C107.55 8.40187 108.7 8.92267 109.666 9.81307L110.633 8.53627C109.533 7.56187 108.217 6.90667 106.451 6.90667C104.151 6.90667 102.485 8.36827 102.485 10.3003C102.485 12.3835 104.035 13.0891 106.367 13.6435C108.284 14.0803 109.233 14.5003 109.233 15.5923C109.233 16.5163 108.417 17.3563 106.834 17.3563C105.284 17.3563 104.085 16.7179 103.068 15.7435L102.052 17.0035C103.268 18.1795 104.851 18.8515 106.767 18.8515Z" fill="white"/>
<path d="M118.399 9.77947C117.066 9.77947 116 10.4179 115.333 11.4763V9.98107H113.701V21.5563H115.333V17.1547C116 18.2299 117.066 18.8683 118.399 18.8683C120.665 18.8683 122.365 16.9867 122.365 14.3155C122.365 11.6611 120.665 9.77947 118.399 9.77947ZM117.999 17.4235C116.45 17.4235 115.333 16.1299 115.333 14.3155C115.333 12.5011 116.45 11.2243 117.999 11.2243C119.582 11.2243 120.699 12.5011 120.699 14.3155C120.699 16.1299 119.582 17.4235 117.999 17.4235Z" fill="white"/>
<path d="M128.638 9.77947C127.689 9.77947 126.606 10.0315 125.373 10.6531L125.973 11.8795C126.722 11.4931 127.555 11.1571 128.405 11.1571C130.121 11.1571 130.621 12.3163 130.621 13.4083V13.6771C129.788 13.3915 128.872 13.2067 128.022 13.2067C126.123 13.2067 124.573 14.3659 124.573 16.0963C124.573 17.7931 125.923 18.8683 127.755 18.8683C128.805 18.8683 129.988 18.3811 130.621 17.4739V18.6667H132.237V13.4083C132.237 11.2579 130.954 9.77947 128.638 9.77947ZM128.072 17.5579C126.989 17.5579 126.156 16.9867 126.156 16.0459C126.156 15.1051 127.122 14.4499 128.272 14.4499C129.122 14.4499 129.921 14.5675 130.621 14.7859V15.9451C130.338 17.0203 129.138 17.5579 128.072 17.5579Z" fill="white"/>
<path d="M139.355 18.8683C140.638 18.8683 141.754 18.3307 142.587 17.4739L141.471 16.4491C140.938 17.0539 140.171 17.4235 139.372 17.4235C137.789 17.4235 136.489 16.0123 136.489 14.3155C136.489 12.6355 137.789 11.2243 139.355 11.2243C140.155 11.2243 140.904 11.5771 141.421 12.1651L142.537 11.1235C141.721 10.3003 140.605 9.77947 139.372 9.77947C136.906 9.77947 134.823 11.8459 134.823 14.3155C134.823 16.7851 136.906 18.8683 139.355 18.8683Z" fill="white"/>
<path d="M148.968 17.3899C147.485 17.3899 146.435 16.3483 146.219 14.9035H153C153 11.7955 151.484 9.77947 148.851 9.77947C146.469 9.77947 144.552 11.6947 144.552 14.2987C144.552 16.9699 146.585 18.8683 148.984 18.8683C150.201 18.8683 151.7 18.3475 152.467 17.5243L151.434 16.4491C150.917 16.9867 149.868 17.3899 148.968 17.3899ZM148.918 11.2579C150.401 11.2579 151.217 12.2323 151.4 13.5763H146.235C146.502 12.1651 147.585 11.2579 148.918 11.2579Z" fill="white"/>
</svg>
